<?xml version="1.0" standalone="no"?>
<!DOCTYPE svg PUBLIC "-//W3C//DTD SVG 20010904//EN"
 "http://www.w3.org/TR/2001/REC-SVG-20010904/DTD/svg10.dtd">
<svg version="1.0" xmlns="http://www.w3.org/2000/svg"
 width="400.000000pt" height="400.000000pt" viewBox="0 0 400.000000 400.000000"
 preserveAspectRatio="xMidYMid meet">
<metadata>
Created by potrace 1.11, written by Peter Selinger 2001-2013
</metadata>
<g transform="translate(0.000000,400.000000) scale(0.100000,-0.100000)"
fill="#000000" stroke="none">
<path d="M1850 3463 c-83 -9 -246 -46 -325 -73 -117 -42 -256 -110 -248 -123
3 -6 1 -7 -5 -3 -11 6 -92 -40 -142 -81 -65 -53 -75 -62 -70 -65 3 -3 113 -72
245 -155 132 -83 353 -222 490 -308 138 -87 364 -230 504 -317 336 -211 328
-205 353 -246 28 -46 30 -122 4 -176 -23 -46 34 -8 -836 -553 -360 -225 -682
-427 -714 -448 l-60 -38 30 -24 c57 -48 210 -145 289 -182 101 -49 235 -94
345 -118 121 -26 459 -26 579 0 277 60 518 184 714 367 306 287 468 660 468
1080 0 359 -117 679 -351 955 -69 81 -77 89 -185 181 -186 160 -458 278 -730
319 -91 14 -266 18 -355 8z"/>
<path d="M809 2858 c-67 -94 -81 -117 -73 -130 4 -7 3 -8 -4 -4 -15 9 -81
-129 -127 -266 -130 -391 -87 -825 118 -1186 55 -97 127 -202 139 -202 17 0
148 143 207 226 83 117 146 252 184 394 39 150 49 374 23 514 -48 256 -156
464 -335 649 -36 37 -70 67 -76 67 -6 0 -31 -28 -56 -62z"/>
</g>
</svg>
